<?xml version="1.0" encoding="utf-8"?>
<!-- Generator: Adobe Illustrator 23.0.4, SVG Export Plug-In . SVG Version: 6.00 Build 0)  -->
<svg version="1.1" id="Calque_1" xmlns="http://www.w3.org/2000/svg" xmlns:xlink="http://www.w3.org/1999/xlink" x="0px" y="0px"
	 viewBox="0 0 16 16" style="enable-background:new 0 0 16 16;" xml:space="preserve">
<style type="text/css">
	.st0{fill:#2D94D2;}
	.st1{fill:#C90C5D;}
	.st2{fill:#FFFFFF;}
	.st3{fill:none;stroke:#2D94D2;stroke-width:4.41;stroke-miterlimit:10;}
</style>
<g>
	<g>
		<polygon class="st0" points="5.16,6.58 5.16,5.58 10.59,5.58 10.59,6.58 5.16,6.58 		"/>
	</g>
	<g>
		<polygon class="st0" points="5.16,8.58 5.16,7.58 10.59,7.58 10.59,8.58 5.16,8.58 		"/>
	</g>
	<g>
		<polygon class="st0" points="5.16,10.58 5.16,9.58 10.59,9.58 10.59,10.58 5.16,10.58 		"/>
	</g>
	<path class="st0" d="M14.81,2.56c-0.25-0.63-0.81-1.08-1.17-1.08c-0.36,0-9.33-0.02-9.33-0.02L4.19,1.52
		C4.16,1.55,3.69,1.83,3.36,2.4C3.07,2.93,3.04,3.53,3.03,3.83v7.75H1.16v0.5c0,0.58,0.07,1.18,0.43,1.67
		c0.42,0.56,0.98,0.74,1.02,0.76l0.08,0.03h1.15c0,0,7.56,0,7.78,0c0.11,0,0.48-0.19,0.75-0.64c0.28-0.48,0.46-1.24,0.47-1.83
		c0-0.8,0.02-5.67,0.03-7.53h2.14v-0.5c0,0,0-0.02,0-0.05C15.01,3.78,15.01,3.12,14.81,2.56z M2.88,13.55
		c-0.03-0.02-0.08-0.04-0.13-0.07c-0.12-0.08-0.27-0.19-0.37-0.32c-0.09-0.11-0.16-0.32-0.2-0.58h7.7c0.08,0.36,0.31,0.69,0.51,0.97
		H2.88z M12.04,2.66c-0.15,0.3-0.18,0.59-0.18,0.83c0,0.17,0.01,0.31,0.01,0.41c0,0.75-0.03,7.25-0.03,8.19
		c0.01,0.26-0.04,0.57-0.14,0.84c-0.05,0.14-0.23,0.36-0.3,0.36s-0.19-0.17-0.31-0.34c-0.12-0.17-0.25-0.53-0.25-0.86v-0.5h-0.42
		c0,0-3.77,0-6.39,0V3.83C4.02,3.66,4.09,3.12,4.24,2.88C4.32,2.73,4.44,2.6,4.55,2.51c0.03-0.02,0.05-0.04,0.07-0.06h7.55
		C12.12,2.52,12.08,2.59,12.04,2.66z M12.86,3.55c0-0.02,0-0.05,0-0.06c0-0.16,0.02-0.28,0.07-0.36c0.12-0.31,0.34-0.59,0.53-0.72
		l0.02-0.04c0.08,0.06,0.29,0.24,0.4,0.54c0.06,0.15,0.1,0.41,0.12,0.64H12.86z"/>
</g>
</svg>
