<?xml version="1.0" encoding="utf-8"?>
<!-- Generator: Adobe Illustrator 23.0.4, SVG Export Plug-In . SVG Version: 6.00 Build 0)  -->
<svg version="1.1" id="Calque_1" xmlns="http://www.w3.org/2000/svg" xmlns:xlink="http://www.w3.org/1999/xlink" x="0px" y="0px"
	 viewBox="0 0 24 24" style="enable-background:new 0 0 24 24;" xml:space="preserve">
<style type="text/css">
	.st0{fill:#2D94D2;}
	.st1{fill:#C90C5D;}
	.st2{fill:#FFFFFF;}
	.st3{fill:none;stroke:#2D94D2;stroke-width:4.41;stroke-miterlimit:10;}
</style>
<g>
	<g>
		<g>
			<path class="st0" d="M10.12,9.87c-1.96,0-3.56-1.6-3.56-3.56s1.6-3.56,3.56-3.56s3.56,1.6,3.56,3.56S12.09,9.87,10.12,9.87z
				 M10.12,3.75c-1.41,0-2.56,1.15-2.56,2.56c0,1.41,1.15,2.56,2.56,2.56s2.56-1.15,2.56-2.56C12.68,4.9,11.54,3.75,10.12,3.75z"/>
		</g>
		<g>
			<path class="st0" d="M10.21,8.42c-0.68,0-1.3-0.34-1.66-0.92L9.01,7.2c0.26,0.42,0.71,0.66,1.2,0.66c0.49,0,0.94-0.25,1.2-0.67
				l0.47,0.29C11.52,8.07,10.89,8.42,10.21,8.42z"/>
		</g>
		<g>
			<rect x="6.46" y="10.64" transform="matrix(0.0145 -0.9999 0.9999 0.0145 -3.8287 23.4)" class="st0" width="7" height="6"/>
			<path class="st0" d="M13.4,17.69l-7-0.1l0.12-8l7,0.1L13.4,17.69z M7.41,16.61l5,0.07l0.09-6l-5-0.07L7.41,16.61z"/>
		</g>
		<g>
			<rect x="6.96" y="14.14" class="st0" width="6" height="1"/>
		</g>
		<g>
			<polygon class="st0" points="0.31,12.31 0.21,11.31 7.15,10.65 7.26,11.64 			"/>
		</g>
		<g>
			<polygon class="st0" points="2.19,14.32 1.33,13.8 2.61,11.67 1.18,10.44 1.83,9.68 3.6,11.54 			"/>
		</g>
		<g>
			<polygon class="st0" points="8.96,21.14 6.71,21.14 6.71,20.14 7.96,20.14 7.96,17.14 8.96,17.14 			"/>
		</g>
		<g>
			<polygon class="st0" points="13.33,21.39 11.08,21.39 11.08,16.89 12.08,16.89 12.08,20.39 13.33,20.39 			"/>
		</g>
		<g>
			<circle class="st0" cx="9.21" cy="6.27" r="0.5"/>
		</g>
		<g>
			<circle class="st0" cx="10.96" cy="6.27" r="0.5"/>
		</g>
		<g>
			<path class="st0" d="M19.33,14.18c-1.85,0-3.36-1.51-3.36-3.36c0-1.85,1.51-3.36,3.36-3.36s3.36,1.51,3.36,3.36
				C22.69,12.67,21.18,14.18,19.33,14.18z M19.33,8.41c-1.33,0-2.41,1.08-2.41,2.42c0,1.33,1.08,2.41,2.41,2.41s2.41-1.08,2.41-2.41
				C21.74,9.49,20.66,8.41,19.33,8.41z"/>
		</g>
		<g>
			<path class="st0" d="M19.41,12.81c-0.64,0-1.23-0.33-1.57-0.87l0.44-0.28c0.25,0.39,0.67,0.62,1.13,0.62
				c0.47,0,0.89-0.24,1.13-0.63l0.44,0.27C20.64,12.48,20.05,12.81,19.41,12.81z"/>
		</g>
		<g>
			<path class="st0" d="M18.93,10.78c0,0.26-0.21,0.47-0.47,0.47c-0.26,0-0.47-0.21-0.47-0.47c0-0.26,0.21-0.47,0.47-0.47
				C18.72,10.31,18.93,10.52,18.93,10.78z"/>
		</g>
		<g>
			<path class="st0" d="M20.59,10.78c0,0.26-0.21,0.47-0.47,0.47c-0.26,0-0.47-0.21-0.47-0.47c0-0.26,0.21-0.47,0.47-0.47
				C20.37,10.31,20.59,10.52,20.59,10.78z"/>
		</g>
	</g>
	<g>
		<path class="st0" d="M16.47,21.37V16.6c0-1.52,1.23-2.76,2.76-2.76l0,0c1.52,0,2.76,1.24,2.76,2.76v4.78H16.47z"/>
	</g>
	<g>
		<path class="st0" d="M18.19,21.37v-2.06c0-0.92,0.75-1.68,1.67-1.68l0,0c0.92,0,1.67,0.75,1.67,1.68v2.06H18.19z"/>
	</g>
	<g>
		<g>
			<path class="st0" d="M18.5,7.91l-1.12,0.29V6.32h-2.06c0,0,0.35-1.18,1.12-1.18c0.77,0,2.06,0,2.06,0V7.91z"/>
		</g>
	</g>
	<g>
		<g>
			<path class="st0" d="M20.68,7.91h-1.24c0,0,0-3.89,0-4.83s1.24-1.12,1.24-1.12V7.91z"/>
		</g>
	</g>
	<g>
		<g>
			<path class="st0" d="M19.38,21.37V19.9c0,0,2.67,0,3.43,0c0.38,0,0.72,0.22,0.95,0.59c0.24,0.37,0.18,0.89,0.18,0.89H19.38z"/>
		</g>
	</g>
	<g>
		<g>
			<path class="st0" d="M19.09,21.37V19.9c0,0-2.67,0-3.43,0c-0.38,0-0.72,0.22-0.95,0.59c-0.24,0.37-0.18,0.89-0.18,0.89H19.09z"/>
		</g>
	</g>
	<g>
		
			<rect x="14.59" y="10.05" transform="matrix(0.7526 -0.6585 0.6585 0.7526 -4.8519 13.1651)" class="st0" width="1" height="5.98"/>
	</g>
</g>
</svg>
