<?xml version="1.0" encoding="utf-8"?>
<!-- Generator: Adobe Illustrator 23.0.4, SVG Export Plug-In . SVG Version: 6.00 Build 0)  -->
<svg version="1.1" id="Calque_1" xmlns="http://www.w3.org/2000/svg" xmlns:xlink="http://www.w3.org/1999/xlink" x="0px" y="0px"
	 viewBox="0 0 24 24" style="enable-background:new 0 0 24 24;" xml:space="preserve">
<style type="text/css">
	.st0{fill:#FFFFFF;}
	.st1{fill:#C90C5D;}
	.st2{fill:#FFFFFF;}
	.st3{fill:none;stroke:#2D94D2;stroke-width:4.41;stroke-miterlimit:10;}
</style>
<g>
	<g>
		<rect x="7.18" y="9.31" class="st0" width="2.2" height="12.29"/>
	</g>
	<g>
		<rect x="15.85" y="11.03" class="st0" width="2.2" height="10.57"/>
	</g>
	<g>
		<path class="st0" d="M18.08,4.03c0-0.86-0.7-1.56-1.56-1.56l0,0c-0.86,0-1.56,0.7-1.56,1.56v7.7c0,0.86,0.7,1.56,1.56,1.56l0,0
			c0.86,0,1.56-0.7,1.56-1.56V4.03z"/>
	</g>
	<g>
		<path class="st0" d="M9.97,3.23v4.19H8.89V3.23H7.66v4.19H6.58V3.23h-1.3v3.66c0,1.67,1.36,3.03,3.03,3.03
			c1.67,0,3.03-1.36,3.03-3.03V3.23H9.97z"/>
	</g>
</g>
</svg>
