<?xml version="1.0" encoding="utf-8"?>
<!-- Generator: Adobe Illustrator 23.0.4, SVG Export Plug-In . SVG Version: 6.00 Build 0)  -->
<svg version="1.1" id="Calque_1" xmlns="http://www.w3.org/2000/svg" xmlns:xlink="http://www.w3.org/1999/xlink" x="0px" y="0px"
	 viewBox="0 0 24 24" style="enable-background:new 0 0 24 24;" xml:space="preserve">
<style type="text/css">
	.st0{fill:#2D94D2;}
	.st1{fill:#C90C5D;}
	.st2{fill:#FFFFFF;}
	.st3{fill:none;stroke:#2D94D2;stroke-width:4.41;stroke-miterlimit:10;}
</style>
<g>
	<g>
		<rect x="5.8" y="14.54" class="st1" width="1.37" height="7.03"/>
	</g>
	<g>
		<rect x="7.87" y="14.54" class="st1" width="1.37" height="7.03"/>
	</g>
	<g>
		<rect x="5.79" y="6.66" class="st1" width="3.44" height="7.97"/>
	</g>
	<g>
		<path class="st1" d="M5.97,13.13H4.6v-5.1c0-0.89,0.7-1.89,1.63-1.89h2.53c0.81,0,1.63,0.62,1.63,1.8v5.14H9.02V7.94
			c0-0.2-0.04-0.43-0.26-0.43H6.23C6.15,7.55,5.97,7.82,5.97,8.03V13.13z"/>
	</g>
	<g>
		<path class="st1" d="M9.05,4c0,0.87-0.7,1.57-1.57,1.57C6.61,5.57,5.9,4.87,5.9,4c0-0.87,0.71-1.57,1.57-1.57
			C8.34,2.43,9.05,3.13,9.05,4z"/>
	</g>
	<g>
		<rect x="14.97" y="14.54" class="st1" width="1.37" height="7.03"/>
	</g>
	<g>
		<rect x="17.05" y="14.54" class="st1" width="1.37" height="7.03"/>
	</g>
	<g>
		<polygon class="st1" points="17.87,6.66 15.49,6.66 12.82,15.57 20.55,15.57 		"/>
	</g>
	<g>
		<path class="st1" d="M13.17,12.96l-1.27-0.52c0,0,1.73-4.2,1.93-4.67c0.2-0.49,0.79-1.62,1.79-1.62h2.1
			c1.07,0,1.53,0.98,1.78,1.51c0.3,0.65,1.84,4.5,1.9,4.67l-1.27,0.51c-0.55-1.37-1.64-4.1-1.87-4.59
			c-0.34-0.72-0.48-0.72-0.54-0.72h-2.1c-0.07,0.03-0.32,0.28-0.52,0.78C14.89,8.77,13.17,12.96,13.17,12.96z"/>
	</g>
	<g>
		<path class="st1" d="M18.22,4c0,0.87-0.7,1.57-1.57,1.57c-0.87,0-1.57-0.7-1.57-1.57c0-0.87,0.7-1.57,1.57-1.57
			C17.51,2.43,18.22,3.13,18.22,4z"/>
	</g>
</g>
</svg>
