<?xml version="1.0" encoding="iso-8859-1"?>
<!-- Generator: Adobe Illustrator 19.0.0, SVG Export Plug-In . SVG Version: 6.00 Build 0)  -->
<svg version="1.1" id="Capa_1" xmlns="http://www.w3.org/2000/svg" xmlns:xlink="http://www.w3.org/1999/xlink" x="0px" y="0px"
	 viewBox="0 0 512 512" style="enable-background:new 0 0 512 512;" xml:space="preserve">
<g>
	<g>
		<circle cx="256" cy="64" r="64"/>
	</g>
</g>
<g>
	<g>
		<path d="M351.872,301.952L337.344,188.8c-1.632-16.416-15.328-28.8-31.808-28.8h-99.04c-16.512,0-30.208,12.384-31.808,28.384
			l-14.56,113.6c-0.576,4.544,0.832,9.152,3.872,12.576c3.04,3.456,7.392,5.44,12,5.44h17.92l12.704,99.2
			c1.632,16.384,15.36,28.8,31.872,28.8h35.04c16.512,0,30.208-12.416,31.808-28.384L318.08,320H336c4.608,0,8.96-1.984,12-5.44
			C351.072,311.136,352.48,306.528,351.872,301.952z"/>
	</g>
</g>
<g>
	<g>
		<path d="M345.344,359.136l-3.968,30.848C408.768,399.84,448,419.616,448,432c0,16.928-72.896,48-192,48S64,448.928,64,432
			c0-12.384,39.232-32.192,106.656-42.016l-3.968-30.848C91.296,369.568,32,393.792,32,432c0,52.544,112.672,80,224,80
			s224-27.456,224-80C480,393.792,420.704,369.568,345.344,359.136z"/>
	</g>
</g>
<g>
</g>
<g>
</g>
<g>
</g>
<g>
</g>
<g>
</g>
<g>
</g>
<g>
</g>
<g>
</g>
<g>
</g>
<g>
</g>
<g>
</g>
<g>
</g>
<g>
</g>
<g>
</g>
<g>
</g>
</svg>
