<?xml version="1.0" encoding="utf-8"?>
<!-- Generator: Adobe Illustrator 23.0.4, SVG Export Plug-In . SVG Version: 6.00 Build 0)  -->
<svg version="1.1" id="Calque_1" xmlns="http://www.w3.org/2000/svg" xmlns:xlink="http://www.w3.org/1999/xlink" x="0px" y="0px"
	 viewBox="0 0 28 28" style="enable-background:new 0 0 28 28;" xml:space="preserve">
<style type="text/css">
	.st0{fill:#2D94D2;}
	.st1{fill:#C90C5D;}
	.st2{fill:#FFFFFF;}
	.st3{fill:none;stroke:#2D94D2;stroke-width:4.41;stroke-miterlimit:10;}
</style>
<g>
	<path class="st0" d="M13.08,21.26c-0.12,0.31-0.15,0.58,0.09,0.58c0.49,0,2.17-1.16,3.06-2.11c0.34,0,0.58,0.31,0.52,0.61
		c-0.86,1.29-3.79,3.64-6.12,3.64c-0.52,0-0.98-0.67-0.98-0.95c0-0.34,0.06-0.67,0.28-1.19l3.4-8.05c0.12-0.31,0.12-0.49-0.06-0.49
		c-0.37,0-1.65,0.8-2.63,1.65c-0.31,0-0.52-0.37-0.43-0.61c1.65-1.93,4.25-3.27,5.63-3.27c0.43,0,0.92,0.43,1.01,0.86
		c0.06,0.24-0.03,0.67-0.34,1.32L13.08,21.26z M14.8,5.93c0-1.04,0.73-2.23,2.08-2.23c0.92,0,1.47,0.52,1.47,1.5
		c0,1.16-0.86,2.23-2.08,2.23C15.29,7.43,14.8,6.73,14.8,5.93z"/>
</g>
</svg>
