<?xml version="1.0" encoding="utf-8"?>
<!-- Generator: Adobe Illustrator 23.0.4, SVG Export Plug-In . SVG Version: 6.00 Build 0)  -->
<svg version="1.1" id="Calque_1" xmlns="http://www.w3.org/2000/svg" xmlns:xlink="http://www.w3.org/1999/xlink" x="0px" y="0px"
	 viewBox="0 0 28 28" style="enable-background:new 0 0 28 28;" xml:space="preserve">
<style type="text/css">
	.st0{fill:#2D94D2;}
	.st1{fill:#C90C5D;}
	.st2{fill:#FFFFFF;}
	.st3{fill:none;stroke:#2D94D2;stroke-width:4.41;stroke-miterlimit:10;}
</style>
<path class="st0" d="M14,4.48c-3.31,0-5.99,2.68-5.99,5.99c0,0.7,0.13,1.37,0.35,2H8.35l0.02,0.05c0.13,0.35,0.28,0.68,0.47,0.99
	L14,24.43l0.12-7.97c3.25-0.07,5.87-2.72,5.87-5.99C19.99,7.16,17.31,4.48,14,4.48z M14,13.59c-1.72,0-3.12-1.4-3.12-3.12
	c0-1.72,1.4-3.12,3.12-3.12c1.73,0,3.12,1.4,3.12,3.12C17.12,12.2,15.72,13.59,14,13.59z"/>
</svg>
