<?xml version="1.0" encoding="utf-8"?>
<!-- Generator: Adobe Illustrator 23.0.4, SVG Export Plug-In . SVG Version: 6.00 Build 0)  -->
<svg version="1.1" id="Calque_1" xmlns="http://www.w3.org/2000/svg" xmlns:xlink="http://www.w3.org/1999/xlink" x="0px" y="0px"
	 viewBox="0 0 28 28" style="enable-background:new 0 0 28 28;" xml:space="preserve">
<style type="text/css">
	.st0{fill:#2D94D2;}
	.st1{fill:#C90C5D;}
	.st2{fill:#FFFFFF;}
	.st3{fill:none;stroke:#2D94D2;stroke-width:4.41;stroke-miterlimit:10;}
</style>
<g>
	<g>
		<g>
			<polygon class="st0" points="10.71,20.76 10.71,10.32 18.6,15.22 			"/>
		</g>
	</g>
	<g>
		<g>
			<path class="st0" d="M7.85,21.01c0,0.86-0.69,1.55-1.55,1.55H6.1c-0.86,0-1.55-0.69-1.55-1.55v-5.58c0-0.86,0.69-1.55,1.55-1.55
				H6.3c0.86,0,1.55,0.69,1.55,1.55V21.01z"/>
		</g>
		<g>
			<path class="st0" d="M4.54,20.35H3.83c-0.72,0-1.3-0.58-1.3-1.3v-1.69c0-0.72,0.58-1.3,1.3-1.3h0.71"/>
		</g>
		<g>
			<path class="st0" d="M19.91,21.01c0,0.86,0.69,1.55,1.55,1.55h0.21c0.86,0,1.55-0.69,1.55-1.55v-5.58c0-0.86-0.69-1.55-1.55-1.55
				h-0.21c-0.86,0-1.55,0.69-1.55,1.55V21.01z"/>
		</g>
		<g>
			<path class="st0" d="M23.22,20.35h0.71c0.72,0,1.3-0.58,1.3-1.3v-1.69c0-0.72-0.58-1.3-1.3-1.3h-0.71"/>
		</g>
		<g>
			<g>
				<path class="st0" d="M24.19,19.33c-0.39,0-0.7-0.31-0.7-0.7v-3.25c0-5.31-4.32-9.63-9.63-9.63c-5.31,0-9.63,4.32-9.63,9.63v3.25
					c0,0.39-0.31,0.7-0.7,0.7s-0.7-0.31-0.7-0.7v-3.25c0-6.08,4.95-11.03,11.03-11.03c6.08,0,11.03,4.95,11.03,11.03v3.25
					C24.89,19.02,24.58,19.33,24.19,19.33z"/>
			</g>
		</g>
	</g>
</g>
</svg>
