<?xml version="1.0" encoding="utf-8"?>
<!-- Generator: Adobe Illustrator 23.0.4, SVG Export Plug-In . SVG Version: 6.00 Build 0)  -->
<svg version="1.1" id="Calque_1" xmlns="http://www.w3.org/2000/svg" xmlns:xlink="http://www.w3.org/1999/xlink" x="0px" y="0px"
	 viewBox="0 0 28 28" style="enable-background:new 0 0 28 28;" xml:space="preserve">
<style type="text/css">
	.st0{fill:#2D94D2;}
	.st1{fill:#C90C5D;}
	.st2{fill:#FFFFFF;}
	.st3{fill:none;stroke:#2D94D2;stroke-width:4.41;stroke-miterlimit:10;}
</style>
<g>
	<g>
		<path class="st0" d="M22.77,21.24v-5.98c0-3.2-1.74-4.69-4.07-4.69c-1.88,0-2.72,1.01-3.19,1.72v-1.48h-3.53
			c0.05,0.98,0,10.42,0,10.42h3.53v-5.82c0-0.31,0.02-0.62,0.12-0.84c0.26-0.62,0.84-1.27,1.81-1.27c1.28,0,1.79,0.96,1.79,2.36
			v5.58L22.77,21.24L22.77,21.24z M8.25,9.39c1.23,0,2-0.8,2-1.8c-0.02-1.02-0.77-1.8-1.98-1.8s-2,0.78-2,1.8c0,1,0.77,1.8,1.95,1.8
			H8.25z M10.02,21.24V10.81H6.49v10.42H10.02z"/>
	</g>
</g>
</svg>
