<?xml version="1.0" encoding="utf-8"?>
<!-- Generator: Adobe Illustrator 23.0.4, SVG Export Plug-In . SVG Version: 6.00 Build 0)  -->
<svg version="1.1" id="Calque_1" xmlns="http://www.w3.org/2000/svg" xmlns:xlink="http://www.w3.org/1999/xlink" x="0px" y="0px"
	 viewBox="0 0 24 24" style="enable-background:new 0 0 24 24;" xml:space="preserve">
<style type="text/css">
	.st0{fill:#2D94D2;}
	.st1{fill:#C90C5D;}
	.st2{fill:#FFFFFF;}
	.st3{fill:none;stroke:#2D94D2;stroke-width:4.41;stroke-miterlimit:10;}
</style>
<g>
	<g>
		<polygon class="st0" points="19.64,8.86 6.62,8.86 6.68,21.48 19.64,21.39 		"/>
	</g>
	<g>
		<polygon class="st0" points="4.36,7.58 5.87,8.01 5.87,19.6 4.36,19.09 		"/>
	</g>
	<g>
		<path class="st0" d="M16.76,11.16h-1V7.66c0-1.72-1.4-3.11-3.12-3.11c-1.72,0-3.12,1.4-3.12,3.11v1.76h-1V7.66
			c0-2.27,1.85-4.11,4.12-4.11s4.12,1.85,4.12,4.11V11.16z"/>
	</g>
	<g>
		<g>
			<path class="st0" d="M14.18,7.01l0.82,0V6.16c-0.15-0.18-0.3-0.36-0.45-0.48c-0.16-0.12-0.38-0.23-0.38-0.23L14.18,7.01z"/>
		</g>
		<g>
			<path class="st0" d="M11.13,2.68c0.59,0,1.36,0.27,1.61,0.44c0.39,0.03,1.05,0.17,1.52,0.36c-0.12-0.16-0.24-0.32-0.38-0.47
				c-0.73-0.73-1.7-1.13-2.74-1.13C9,1.87,7.27,3.61,7.27,5.74v1.28l0.81,0V5.86C8.08,4.18,9.45,2.68,11.13,2.68z"/>
		</g>
	</g>
</g>
</svg>
