<svg id="Calque_1" data-name="Calque 1" xmlns="http://www.w3.org/2000/svg" viewBox="0 0 24 24"><defs><style>.cls-1{fill:#E30613;}</style></defs><path class="cls-1" d="M9.34,16.89C8.82,15.16,7.94,13.78,6,13.8s-2.78,1.31-3.23,2.95C.65,17,.65,17,.65,15c0-2.37,0-4.73,0-7.1,0-1.9.68-2.59,2.57-2.6,6.66,0,9.81,0,16.46,0A3.54,3.54,0,0,1,23.54,9.1c.05,2.2.05,4.4,0,6.6,0,.4-.46,1.08-.76,1.11-.47.05-1.28-.22-1.42-.57-.64-1.53-1.6-2.53-3.32-2.44s-2.66,1.35-3.1,3.09H9.34ZM6.11,14.57A2.35,2.35,0,0,0,3.63,16.9a2.31,2.31,0,0,0,2.24,2.37A2.27,2.27,0,0,0,8.34,17,2.34,2.34,0,0,0,6.11,14.57Zm9.76,2.32a2.25,2.25,0,0,0,2.37,2.38A2.28,2.28,0,0,0,20.56,17a2.31,2.31,0,0,0-2.39-2.39A2.27,2.27,0,0,0,15.87,16.89ZM5.26,9.7v-2a1,1,0,0,0-1-1H3.4a1,1,0,0,0-1,1v2a1,1,0,0,0,1,1h.87A1,1,0,0,0,5.26,9.7Zm5.84,0v-2a1,1,0,0,0-1-1H7.83a1,1,0,0,0-1,1v2a1,1,0,0,0,1,1H10.1A1,1,0,0,0,11.1,9.7Zm5.83,0v-2a1,1,0,0,0-1-1H13.67a1,1,0,0,0-1,1v2a1,1,0,0,0,1,1h2.27A1,1,0,0,0,16.93,9.7Zm4.91,2.41V8.48A1.8,1.8,0,0,0,20,6.68H19a.44.44,0,0,0-.44.44v3A1.14,1.14,0,0,0,19,11l1.9,1.54A.61.61,0,0,0,21.84,12.11Z"/></svg>