<?xml version="1.0" encoding="utf-8"?>
<!-- Generator: Adobe Illustrator 23.0.4, SVG Export Plug-In . SVG Version: 6.00 Build 0)  -->
<svg version="1.1" id="Calque_1" xmlns="http://www.w3.org/2000/svg" xmlns:xlink="http://www.w3.org/1999/xlink" x="0px" y="0px"
	 viewBox="0 0 16 16" style="enable-background:new 0 0 16 16;" xml:space="preserve">
<style type="text/css">
	.st0{fill:#2D94D2;}
	.st1{fill:#C90C5D;}
	.st2{fill:#FFFFFF;}
	.st3{fill:none;stroke:#2D94D2;stroke-width:4.41;stroke-miterlimit:10;}
</style>
<path class="st0" d="M7.81,1.47C5.43,1.47,3.5,3.4,3.5,5.78c0,0.5,0.09,0.99,0.25,1.44h0l0.02,0.04c0.09,0.25,0.2,0.49,0.34,0.71
	l3.71,7.86l0.09-5.74c2.34-0.05,4.22-1.96,4.22-4.31C12.12,3.4,10.19,1.47,7.81,1.47z M7.81,8.02c-1.24,0-2.24-1-2.24-2.24
	c0-1.24,1.01-2.24,2.24-2.24c1.24,0,2.25,1,2.25,2.24C10.05,7.02,9.05,8.02,7.81,8.02z"/>
</svg>
