<?xml version="1.0" encoding="utf-8"?>
<!-- Generator: Adobe Illustrator 23.0.4, SVG Export Plug-In . SVG Version: 6.00 Build 0)  -->
<svg version="1.1" id="Calque_1" xmlns="http://www.w3.org/2000/svg" xmlns:xlink="http://www.w3.org/1999/xlink" x="0px" y="0px"
	 viewBox="0 0 16 16" style="enable-background:new 0 0 16 16;" xml:space="preserve">
<style type="text/css">
	.st0{fill:#2D94D2;}
	.st1{fill:#C90C5D;}
	.st2{fill:#FFFFFF;}
	.st3{fill:none;stroke:#2D94D2;stroke-width:4.41;stroke-miterlimit:10;}
</style>
<g>
	<g>
		<g>
			<polygon class="st0" points="5.81,12.98 5.81,5.65 11.34,9.09 			"/>
		</g>
	</g>
	<g>
		<g>
			<path class="st0" d="M3.81,13.15c0,0.6-0.49,1.09-1.09,1.09H2.57c-0.6,0-1.09-0.49-1.09-1.09V9.24c0-0.6,0.49-1.09,1.09-1.09
				h0.15c0.6,0,1.09,0.49,1.09,1.09V13.15z"/>
		</g>
		<g>
			<path class="st0" d="M1.48,12.69h-0.5c-0.5,0-0.91-0.41-0.91-0.91v-1.19c0-0.5,0.41-0.91,0.91-0.91h0.5"/>
		</g>
		<g>
			<path class="st0" d="M12.26,13.15c0,0.6,0.49,1.09,1.09,1.09h0.15c0.6,0,1.09-0.49,1.09-1.09V9.24c0-0.6-0.49-1.09-1.09-1.09
				h-0.15c-0.6,0-1.09,0.49-1.09,1.09V13.15z"/>
		</g>
		<g>
			<path class="st0" d="M14.59,12.69h0.5c0.5,0,0.91-0.41,0.91-0.91v-1.19c0-0.5-0.41-0.91-0.91-0.91h-0.5"/>
		</g>
		<g>
			<g>
				<path class="st0" d="M15.27,11.98c-0.27,0-0.49-0.22-0.49-0.49V9.21c0-3.72-3.03-6.75-6.75-6.75c-3.72,0-6.75,3.03-6.75,6.75
					v2.28c0,0.27-0.22,0.49-0.49,0.49s-0.49-0.22-0.49-0.49V9.21c0-4.27,3.47-7.74,7.74-7.74c4.26,0,7.73,3.47,7.73,7.74v2.28
					C15.76,11.76,15.54,11.98,15.27,11.98z"/>
			</g>
		</g>
	</g>
</g>
</svg>
